<?xml version="1.0" encoding="UTF-8"?>
<svg width="24px" height="24px" viewBox="0 0 24 24" version="1.1" xmlns="http://www.w3.org/2000/svg" xmlns:xlink="http://www.w3.org/1999/xlink">
    <title>google</title>
    <g id="页面-1" stroke="none" stroke-width="1" fill="none" fill-rule="evenodd">
        <g id="账号系统优化2" transform="translate(-915.000000, -398.000000)" fill-rule="nonzero">
            <g id="确定按钮备份-5" transform="translate(710.000000, 384.000000)">
                <g id="google" transform="translate(205.000000, 14.000000)">
                    <path d="M24,12.2664857 C24,11.2798286 23.9183143,10.5598286 23.7414857,9.81317143 L12.2448857,9.81317143 L12.2448857,14.2664571 L18.9931714,14.2664571 C18.8571429,15.3732 18.1224,17.0398286 16.4897143,18.1597714 L16.4668286,18.3089143 L20.1018857,21.0685714 L20.3537143,21.0931714 C22.6666286,18.9998571 24,15.9198 24,12.2664857 Z" id="路径" fill="#4285F4"></path>
                    <path d="M12.2441143,24 C15.5502,24 18.3257143,22.9332857 20.3529429,21.0933429 L16.4890286,18.1598571 C15.4549714,18.8665714 14.0672571,19.3599429 12.2441143,19.3599429 C9.00608571,19.3599429 6.25782,17.2666286 5.27814,14.3732571 L5.13454286,14.3851714 L1.35481714,17.2518857 L1.30538571,17.3865429 C3.31896857,21.3066 7.455,24 12.2441143,24 Z" id="路径" fill="#34A853"></path>
                    <path d="M5.27886,14.3732571 C5.02035429,13.6266 4.87075714,12.8265429 4.87075714,11.9999143 C4.87075714,11.1732 5.02036286,10.3732286 5.26525714,9.62657143 L5.25840857,9.46757143 L1.43130857,6.55486286 L1.30609714,6.61323429 C0.476194286,8.23988571 0,10.0666286 0,11.9999143 C0,13.9332857 0.476194286,15.7598571 1.30609714,17.3865429 L5.27886,14.3732571 Z" id="路径" fill="#FBBC05"></path>
                    <path d="M12.2442,4.63997143 C14.5434857,4.63997143 16.0944857,5.6133 16.9788857,6.42668571 L20.4346286,3.12 C18.3122571,1.18667143 15.5502857,0 12.2442,0 C7.45508571,0 3.31897714,2.69331429 1.30538571,6.61327714 L5.26456286,9.62665714 C6.25785429,6.73332857 9.00617143,4.63997143 12.2442,4.63997143 Z" id="路径" fill="#EB4335"></path>
                </g>
            </g>
        </g>
    </g>
</svg>